HIERARCHY
ROOT Hips
{
	OFFSET 0.000000 0.000000 0.000000
	CHANNELS 6 Xposition Yposition Zposition Xrotation Yrotation Zrotation
	JOINT Chest
	{
		OFFSET 0.000000 9.585900 0.002600
		CHANNELS 3 Xrotation Yrotation Zrotation
		JOINT Chest2
		{
			OFFSET 0.000000 9.601200 -0.005300
			CHANNELS 3 Xrotation Yrotation Zrotation
			JOINT Chest3
			{
				OFFSET 0.000000 9.561800 0.000000
				CHANNELS 3 Xrotation Yrotation Zrotation
				JOINT Chest4
				{
					OFFSET 0.000000 9.552100 0.000000
					CHANNELS 3 Xrotation Yrotation Zrotation
					JOINT Neck
					{
						OFFSET 0.000000 14.453000 0.000000
						CHANNELS 3 Xrotation Yrotation Zrotation
						JOINT Head
						{
							OFFSET 0.000000 8.936500 -0.011300
							CHANNELS 3 Xrotation Yrotation Zrotation
							End Site
							{
								OFFSET 0.000000 0.000000 0.000000
							}
						}
					}
					JOINT RightCollar
					{
						OFFSET -2.921100 9.558500 0.000000
						CHANNELS 3 Xrotation Yrotation Zrotation
						JOINT RightShoulder
						{
							OFFSET -13.519700 0.000000 0.000000
							CHANNELS 3 Xrotation Yrotation Zrotation
							JOINT RightElbow
							{
								OFFSET 0.000000 -29.696600 0.000000
								CHANNELS 3 Xrotation Yrotation Zrotation
								JOINT RightWrist
								{
									OFFSET 0.000000 -24.004700 0.000000
									CHANNELS 3 Xrotation Yrotation Zrotation
									End Site
									{
										OFFSET 0.000000 0.000000 0.000000
									}
								}
							}
						}
					}
					JOINT LeftCollar
					{
						OFFSET 2.921100 9.558500 0.000000
						CHANNELS 3 Xrotation Yrotation Zrotation
						JOINT LeftShoulder
						{
							OFFSET 13.519700 0.000000 0.000000
							CHANNELS 3 Xrotation Yrotation Zrotation
							JOINT LeftElbow
							{
								OFFSET 0.000000 -29.696600 0.000000
								CHANNELS 3 Xrotation Yrotation Zrotation
								JOINT LeftWrist
								{
									OFFSET 0.000000 -24.004700 0.000000
									CHANNELS 3 Xrotation Yrotation Zrotation
									End Site
									{
										OFFSET 0.000000 0.000000 0.000000
									}
								}
							}
						}
					}
				}
			}
		}
	}
	JOINT RightHip
	{
		OFFSET -7.771700 -0.012900 -0.001300
		CHANNELS 3 Xrotation Yrotation Zrotation
		JOINT RightKnee
		{
			OFFSET 0.000000 -40.869801 0.001200
			CHANNELS 3 Xrotation Yrotation Zrotation
			JOINT RightAnkle
			{
				OFFSET 0.000000 -39.717899 0.002100
				CHANNELS 3 Xrotation Yrotation Zrotation
				JOINT RightToe
				{
					OFFSET 0.000000 -4.965400 11.033500
					CHANNELS 3 Xrotation Yrotation Zrotation
					End Site
					{
						OFFSET 0.000000 0.000000 0.000000
					}
				}
			}
		}
	}
	JOINT LeftHip
	{
		OFFSET 7.771700 -0.012900 -0.001300
		CHANNELS 3 Xrotation Yrotation Zrotation
		JOINT LeftKnee
		{
			OFFSET 0.000000 -40.869801 0.001200
			CHANNELS 3 Xrotation Yrotation Zrotation
			JOINT LeftAnkle
			{
				OFFSET 0.000000 -39.717899 0.002100
				CHANNELS 3 Xrotation Yrotation Zrotation
				JOINT LeftToe
				{
					OFFSET 0.000000 -4.965400 11.033500
					CHANNELS 3 Xrotation Yrotation Zrotation
					End Site
					{
						OFFSET 0.000000 0.000000 0.000000
					}
				}
			}
		}
	}
}
MOTION
Frames: 12
Frame Time: 0.032
0.0 0.0 0.0 -175.204980 27.601964 179.536618 7.137890 4.313947 1.076835 3.355802 1.507004 -0.153314 1.067019 0.157861 0.018112 7.786571 0.786019 -0.255466 16.567696 0.551158 1.017202 -6.198174 3.241290 -1.146306 3.762281 7.970273 1.535570 -35.958361 19.676377 -17.882672 -73.234654 -25.643214 53.719503 -5.930837 -1.274643 -20.547699 0.561548 -4.973461 -6.006272 -21.250235 11.788968 6.019133 -67.297970 17.592190 -58.541374 25.154822 -7.357149 1.012411 -63.174496 -1.245204 4.390020 74.311181 -8.840758 -0.290527 -7.659443 -1.148305 1.124449 1.380613 0.323385 0.119730 -62.930269 10.211857 13.534016 65.314654 18.923259 -0.493538 -23.022640 -23.967924 -4.864367 -0.193829 0.463160 -0.469867
0.0 0.0 0.0 -174.866011 27.610280 179.572804 7.412659 4.365021 1.022391 3.537821 1.569428 0.015784 1.272120 0.212392 0.233067 7.967749 0.875651 -0.033388 16.759090 0.629712 0.978792 -6.043077 3.235313 -1.249301 3.992067 7.918844 1.376627 -35.725721 19.290199 -18.131244 -73.531365 -26.021549 53.337480 -5.864368 -1.329748 -20.262231 0.697446 -4.932769 -5.707871 -21.036165 12.046663 6.354883 -67.370069 17.966401 -58.484615 25.203357 -7.224916 0.896628 -62.963573 -1.282656 4.385758 74.363097 -8.786274 -0.387041 -7.448720 -1.126052 1.128025 1.524483 0.334562 0.049908 -62.717468 10.078228 13.585751 65.480300 18.995294 -0.569338 -22.840147 -23.968993 -4.711543 -0.066518 0.470950 -0.408752
0.0 0.0 0.0 -175.012287 27.671955 179.741810 7.160753 4.452945 0.886848 3.326665 1.573816 -0.054980 1.015905 0.206415 0.162621 7.712157 0.870588 -0.108288 16.526725 0.559618 0.741750 -6.150443 3.376606 -1.360972 3.751608 7.817903 1.239124 -35.862714 19.158474 -18.086964 -74.087424 -26.226871 52.987125 -6.156141 -1.360072 -20.271892 0.457511 -4.870874 -5.804560 -21.056225 12.387609 6.276495 -67.530558 18.519283 -58.605222 25.143726 -7.259287 0.716175 -63.211878 -1.106513 4.245445 74.225756 -8.844458 -0.417245 -7.671272 -1.124968 0.874839 1.417936 0.448820 -0.072138 -62.988209 10.173276 13.576259 65.272675 18.824010 -0.617942 -22.949345 -23.823162 -4.653700 -0.170663 0.586545 -0.461560
0.0 0.0 0.0 -175.106598 27.649917 179.476102 7.053829 4.360944 1.033849 3.304663 1.473889 -0.172595 1.024802 0.120989 -0.014264 7.691653 0.800584 -0.229793 16.525643 0.508450 0.906061 -6.209677 3.252589 -1.282174 3.883964 7.664185 1.390000 -35.718047 18.814603 -17.985543 -74.410253 -26.505478 52.553716 -6.308635 -1.425980 -20.195573 0.446382 -4.963970 -6.016504 -20.855479 12.562041 6.093184 -67.920576 18.841692 -58.432815 25.012855 -7.445095 0.815865 -63.139949 -1.202619 4.390947 74.251758 -8.933332 -0.307062 -7.628472 -1.261700 1.053718 1.364673 0.312781 0.035208 -62.888530 10.173516 13.442021 65.269247 18.840182 -0.503850 -23.043993 -23.856743 -4.817429 -0.244162 0.447308 -0.502419
0.0 0.0 0.0 -174.983668 27.645793 179.620383 7.011383 4.444339 0.761573 3.244567 1.525616 -0.152596 0.980439 0.204321 0.109266 7.620824 0.878286 -0.177157 16.480855 0.518281 0.610845 -6.194112 3.355502 -1.400315 3.968488 7.662782 1.109901 -35.463763 18.524397 -18.242015 -74.780900 -26.871033 52.232837 -6.462228 -1.471919 -19.990401 0.428538 -4.853111 -5.899577 -20.733179 12.927683 6.270595 -68.068852 19.306436 -58.668046 24.886964 -7.415161 0.517400 -63.214282 -0.993557 4.239044 74.163314 -8.963389 -0.444325 -7.666507 -1.220159 0.777001 1.360393 0.403121 -0.140691 -62.920317 10.209980 13.519278 65.268748 18.747669 -0.695100 -23.070255 -23.714741 -4.641829 -0.249951 0.543370 -0.552584
0.0 0.0 0.0 -175.039867 27.566840 179.581560 7.044702 4.549600 0.905781 3.140443 1.557344 -0.104504 0.836107 0.254108 0.153458 7.495470 0.937263 -0.120105 16.367353 0.584290 0.709003 -6.300254 3.442680 -1.319947 3.822217 7.650608 1.190849 -35.382296 18.250650 -18.094302 -75.330361 -26.970983 51.667000 -6.575874 -1.512395 -19.777911 0.226985 -4.770166 -5.833290 -20.679115 13.247434 6.357764 -68.505834 19.951087 -58.292188 24.666897 -7.323247 0.601889 -63.251834 -0.962663 4.346178 74.104547 -8.917839 -0.305800 -7.749629 -1.214315 0.881976 1.258576 0.467779 -0.036727 -62.979487 10.222555 13.555540 65.246960 18.781166 -0.546511 -23.150542 -23.600141 -4.588076 -0.366729 0.607497 -0.468349
0.0 0.0 0.0 -174.821438 27.732523 179.553434 7.198298 4.662812 0.785783 3.400443 1.612061 -0.140194 1.114384 0.318733 0.159130 7.699996 1.055542 -0.122294 16.667173 0.681386 0.618225 -6.033242 3.478005 -1.368876 4.366052 7.607918 1.261740 -35.002462 17.658867 -18.145547 -75.670593 -27.580966 51.199200 -6.468444 -1.651429 -19.571075 0.551739 -4.681439 -5.869211 -20.077353 13.903463 6.283578 -68.561780 20.455100 -58.661551 24.951666 -7.419956 0.449413 -63.096926 -0.942208 4.303242 74.179440 -8.832548 -0.456934 -7.401673 -1.238479 0.804951 1.541367 0.489659 -0.109811 -62.754596 10.237806 13.566615 65.354993 18.987851 -0.704788 -23.031685 -23.614170 -4.581874 -0.103721 0.628314 -0.529248
0.0 0.0 0.0 -174.720378 27.718221 179.560359 7.124048 4.547604 0.580577 3.414605 1.529888 -0.134995 1.091065 0.246625 0.213653 7.672997 0.992942 -0.124290 16.662400 0.576480 0.427722 -6.034193 3.395302 -1.488190 4.393832 7.413668 1.045131 -34.872398 17.109721 -18.594113 -76.282906 -28.177069 50.259623 -6.641180 -1.869865 -19.453386 0.507559 -4.729766 -5.841864 -19.936827 14.223364 6.599901 -68.837037 21.139615 -58.372839 24.709613 -7.512931 0.234637 -63.064728 -0.939134 4.216814 74.138193 -9.039673 -0.547653 -7.375178 -1.362245 0.641916 1.532205 0.396144 -0.250103 -62.717481 10.110920 13.590971 65.394062 18.822490 -0.800862 -23.085322 -23.653883 -4.590930 -0.131351 0.531263 -0.612967
0.0 0.0 0.0 -174.876243 27.746651 179.465584 7.091986 4.663597 0.810571 3.373784 1.619614 -0.165168 1.051959 0.359716 0.161595 7.614613 1.119616 -0.120063 16.620413 0.703816 0.653539 -6.097519 3.466562 -1.368056 4.393689 7.439801 1.247769 -34.843698 16.700309 -18.276963 -76.621725 -28.425676 49.898015 -6.738411 -1.723847 -19.167253 0.488166 -4.578199 -5.882150 -19.760031 14.690180 6.393902 -69.001788 21.708008 -58.316784 24.611806 -7.438950 0.253698 -63.047058 -0.926063 4.409629 74.115626 -8.919092 -0.381645 -7.340403 -1.326433 0.890305 1.482235 0.457788 -0.092380 -62.717065 10.200387 13.571257 65.368148 19.020088 -0.591647 -23.184090 -23.554648 -4.675485 -0.211796 0.593898 -0.560925
0.0 0.0 0.0 -174.563707 27.865611 179.463125 7.404102 4.851447 0.886700 3.558338 1.628134 -0.219767 1.263672 0.365708 0.058917 7.772535 1.153148 -0.163106 16.846892 0.740179 0.557618 -5.775556 3.597453 -1.435958 4.754255 7.365062 1.097320 -34.397482 16.417538 -18.209313 -77.056063 -28.947575 49.302238 -6.566503 -1.896356 -19.054790 0.658285 -4.547436 -5.928515 -19.426988 15.096036 6.358856 -69.310274 22.108202 -58.490817 24.998696 -7.286561 0.202964 -62.926383 -0.974356 4.303648 74.257762 -8.647906 -0.474144 -7.121786 -1.361651 0.770766 1.805933 0.586780 -0.093906 -62.594196 10.204672 13.413207 65.453744 19.138713 -0.669270 -22.824120 -23.481220 -4.543347 0.107236 0.715653 -0.516823
0.0 0.0 0.0 -174.747699 27.834918 179.369305 7.307456 4.878262 1.071989 3.436771 1.636378 -0.269365 1.105819 0.371627 -0.007557 7.625503 1.172211 -0.189574 16.720163 0.768906 0.750291 -5.940978 3.601749 -1.258260 4.607748 7.297846 1.386392 -34.521467 16.084167 -18.055197 -77.902378 -29.142976 48.362377 -6.833261 -1.864134 -19.096668 0.448972 -4.506883 -6.034569 -19.354234 15.487121 6.398999 -69.609770 22.552948 -58.039389 24.822675 -7.310229 0.335481 -62.943526 -0.968420 4.471285 74.201181 -8.673081 -0.291510 -7.215011 -1.372874 0.959270 1.653378 0.583400 0.061180 -62.644603 10.247696 13.399802 65.386842 19.189183 -0.476706 -23.033889 -23.435120 -4.648547 -0.072200 0.706069 -0.478456
0.0 0.0 0.0 -174.350605 27.819594 179.334704 7.420283 4.834699 0.699709 3.620663 1.629035 -0.107484 1.322446 0.421762 0.323413 7.763237 1.284161 -0.003236 16.932085 0.778053 0.492024 -5.792262 3.518224 -1.341873 5.120703 7.084874 1.275139 -33.990044 14.908430 -18.533052 -78.712002 -30.177777 47.558313 -6.826402 -2.155721 -18.423575 0.732208 -4.456613 -5.710446 -18.770692 16.325653 6.725578 -70.024889 23.785205 -58.233749 24.506627 -7.457372 -0.053919 -62.766898 -0.884364 4.392399 74.141751 -8.837943 -0.504225 -6.881327 -1.492443 0.780519 1.801937 0.483101 -0.110853 -62.329369 10.049151 13.598945 65.634566 19.178374 -0.763865 -23.080492 -23.443011 -4.458422 0.027512 0.613143 -0.524863
